<svg xmlns="http://www.w3.org/2000/svg" viewBox="0 0 32 32" width="32" height="32">
  <defs>
    <linearGradient id="celebrationGradient" x1="0%" y1="0%" x2="100%" y2="100%">
      <stop offset="0%" style="stop-color:#ff8c00;stop-opacity:1" />
      <stop offset="50%" style="stop-color:#ff6b35;stop-opacity:1" />
      <stop offset="100%" style="stop-color:#f7931e;stop-opacity:1" />
    </linearGradient>
    <linearGradient id="accentGradient" x1="0%" y1="0%" x2="100%" y2="100%">
      <stop offset="0%" style="stop-color:rgb(243, 74, 217);stop-opacity:1" />
      <stop offset="100%" style="stop-color:rgb(200, 50, 180);stop-opacity:1" />
    </linearGradient>
    <radialGradient id="sparkleGradient" cx="50%" cy="50%" r="50%">
      <stop offset="0%" style="stop-color:#ffffff;stop-opacity:1" />
      <stop offset="100%" style="stop-color:#ffcc00;stop-opacity:0.8" />
    </radialGradient>
  </defs>
  
  <!-- Background circle -->
  <circle cx="16" cy="16" r="15" fill="url(#celebrationGradient)" stroke="white" stroke-width="1" opacity="0.95"/>
  
  <!-- Party hat -->
  <path d="M16 4 L12 14 L20 14 Z" fill="url(#accentGradient)" stroke="white" stroke-width="0.5"/>
  <circle cx="16" cy="4" r="2" fill="#ffcc00" stroke="white" stroke-width="0.5"/>
  
  <!-- Confetti pieces -->
  <rect x="6" y="8" width="2" height="2" rx="0.5" fill="#ff6b35" transform="rotate(45 7 9)"/>
  <rect x="24" y="10" width="2" height="2" rx="0.5" fill="rgb(243, 74, 217)" transform="rotate(30 25 11)"/>
  <rect x="8" y="24" width="2" height="2" rx="0.5" fill="#ffcc00" transform="rotate(60 9 25)"/>
  <rect x="22" y="22" width="2" height="2" rx="0.5" fill="#ff8c00" transform="rotate(15 23 23)"/>
  
  <!-- Sparkles/Stars -->
  <path d="M10 18 L11 20 L13 18 L11 16 Z" fill="url(#sparkleGradient)" opacity="0.9"/>
  <path d="M22 16 L23 18 L25 16 L23 14 Z" fill="url(#sparkleGradient)" opacity="0.9"/>
  <path d="M12 26 L13 28 L15 26 L13 24 Z" fill="url(#sparkleGradient)" opacity="0.9"/>
  
  <!-- Celebration ribbons/streamers -->
  <path d="M4 12 Q8 14 6 18 Q10 16 8 20" stroke="url(#accentGradient)" stroke-width="2" fill="none" opacity="0.8"/>
  <path d="M28 14 Q24 16 26 20 Q22 18 24 22" stroke="#ffcc00" stroke-width="2" fill="none" opacity="0.8"/>
  
  <!-- Central celebration burst -->
  <circle cx="16" cy="18" r="4" fill="url(#sparkleGradient)" opacity="0.3"/>
  <circle cx="16" cy="18" r="2" fill="white" opacity="0.8"/>
  
  <!-- Small decorative dots -->
  <circle cx="8" cy="14" r="1" fill="#ffcc00" opacity="0.7"/>
  <circle cx="24" cy="24" r="1" fill="rgb(243, 74, 217)" opacity="0.7"/>
  <circle cx="6" cy="22" r="1" fill="#ff6b35" opacity="0.7"/>
</svg>
