<svg xmlns="http://www.w3.org/2000/svg" viewBox="0 0 512 512" fill="none">
  <!-- Base Calendar Plate -->
  <rect x="64" y="96" width="384" height="352" rx="48" fill="#ffffff" stroke="#0f172a" stroke-width="24"/>
  
  <!-- Calendar Top Header (Teal) -->
  <path d="M64 144C64 117.49 85.49 96 112 96H400C426.51 96 448 117.49 448 144V208H64V144Z" fill="#0d9488" stroke="#0f172a" stroke-width="24" stroke-linejoin="round"/>
  
  <!-- Binder Rings (Orange) -->
  <rect x="136" y="48" width="32" height="96" rx="16" fill="#f97316" stroke="#0f172a" stroke-width="24"/>
  <rect x="344" y="48" width="32" height="96" rx="16" fill="#f97316" stroke="#0f172a" stroke-width="24"/>
  
  <!-- Calendar Grid Dots / Blocks -->
  <!-- Row 1 -->
  <rect x="120" y="256" width="56" height="56" rx="16" fill="#06b6d4" />
  <rect x="228" y="256" width="56" height="56" rx="16" fill="#0f172a" opacity="0.1" />
  <rect x="336" y="256" width="56" height="56" rx="16" fill="#d946ef" />
  
  <!-- Row 2 -->
  <rect x="120" y="344" width="56" height="56" rx="16" fill="#0f172a" opacity="0.1" />
  <rect x="228" y="344" width="56" height="56" rx="16" fill="#f97316" />
  <rect x="336" y="344" width="56" height="56" rx="16" fill="#0f172a" opacity="0.1" />
</svg>
